<?xml version="1.0" encoding="UTF-8"?>
<svg id="Layer_2" data-name="Layer 2" xmlns="http://www.w3.org/2000/svg" viewBox="0 0 335 335">
  <defs>
    <style>
      .cls-1 {
        fill: #f1f2f2;
      }

      .cls-2 {
        fill: #0c619a;
      }
    </style>
  </defs>
  <g id="Layer_1-2" data-name="Layer 1">
    <g>
      <path class="cls-2" d="m0,335C0,223.33,0,111.67,0,0c111.67,0,223.33,0,335,0,0,111.67,0,223.33,0,335-111.67,0-223.33,0-335,0Zm41.62-111.93v-61.16c5.99,7.98,11.1,16.17,16.12,24.41,3.33,5.46,6.41,11.08,9.83,16.49,2.67,4.23,4.36,4.18,6.96,0,4.15-6.7,8.12-13.51,12.27-20.21,4.54-7.33,9.2-14.58,13.8-21.86.46.19.92.39,1.37.58v61.66h24.61v-110.74c-8.08,0-15.72-.11-23.36.12-1.2.04-2.75,1.37-3.46,2.53-9.48,15.26-18.84,30.6-28.51,46.38-1.66-2.52-3.16-4.66-4.52-6.89-7.79-12.76-15.5-25.57-23.38-38.28-.95-1.53-2.64-3.58-4.08-3.65-7.6-.36-15.23-.17-23.07-.17v110.81h25.41Zm201.65-100.38c-.51-.43-1.02-.85-1.53-1.28-31.6,33.65-63.2,67.3-95.55,101.75,16.78,0,32.1-.07,47.42.02,10.56.07,20.12-3.62,28.12-9.73,23.29-17.79,29.64-49.24,14.72-74.58-1.55-2.63-1.48-4.8.41-7.21,2.27-2.89,4.28-5.97,6.41-8.97Zm78.25,99.44v-24.34h-39.41v-85.15h-24.81v109.49h64.23Zm-175.37-109.17v69.23c-5.2-1.27-9.81-2.4-14.42-3.53,3.31,4.18,7.29,7.08,10.81,10.45,2.57,2.47,4.45,1.84,6.83,0,5.4-4.2,10.77-8.47,16.43-12.31,4.49-3.06,6.45-6.62,6.11-12.27-.54-9.07-.15-18.19-.15-27.23,14.8-.84,24.39-1.91,36.21,5.01.79.46,2.4.5,3.08,0,6-4.43,11.88-9.02,18.04-13.76-1.63-1.41-2.83-2.54-4.13-3.54-9.46-7.29-19.76-12.21-32.08-12.09-15.27.15-30.55.04-46.73.04Z"/>
      <path class="cls-1" d="m41.62,223.07h-25.41v-110.81c7.84,0,15.47-.19,23.07.17,1.43.07,3.13,2.12,4.08,3.65,7.87,12.71,15.59,25.52,23.38,38.28,1.36,2.23,2.86,4.37,4.52,6.89,9.67-15.78,19.03-31.11,28.51-46.38.72-1.15,2.27-2.49,3.46-2.53,7.64-.23,15.28-.12,23.36-.12v110.74h-24.61v-61.66c-.46-.19-.92-.39-1.37-.58-4.61,7.28-9.26,14.54-13.8,21.86-4.15,6.7-8.12,13.51-12.27,20.21-2.6,4.19-4.29,4.23-6.96,0-3.41-5.41-6.5-11.02-9.83-16.49-5.02-8.24-10.13-16.43-16.12-24.41v61.16Z"/>
      <path class="cls-1" d="m243.27,122.69c-2.13,3-4.14,6.09-6.41,8.97-1.89,2.41-1.97,4.58-.41,7.21,14.92,25.34,8.57,56.78-14.72,74.58-8,6.11-17.56,9.8-28.12,9.73-15.32-.1-30.64-.02-47.42-.02,32.35-34.45,63.95-68.1,95.55-101.75.51.43,1.02.85,1.53,1.28Zm-52.01,75.68c18.43,1.59,33.06-18.95,27.04-38.9-9.18,13.2-17.97,25.86-27.04,38.9Z"/>
      <path class="cls-1" d="m321.53,222.13h-64.23v-109.49h24.81v85.15h39.41v24.34Z"/>
      <path class="cls-1" d="m146.15,112.96c16.18,0,31.45.11,46.73-.04,12.32-.12,22.62,4.8,32.08,12.09,1.3,1,2.5,2.13,4.13,3.54-6.16,4.74-12.04,9.33-18.04,13.76-.68.5-2.29.46-3.08,0-11.82-6.93-21.41-5.85-36.21-5.01,0,9.04-.4,18.16.15,27.23.34,5.65-1.62,9.21-6.11,12.27-5.65,3.85-11.02,8.11-16.43,12.31-2.38,1.85-4.26,2.48-6.83,0-3.52-3.38-7.5-6.27-10.81-10.45,4.61,1.13,9.23,2.26,14.42,3.53v-69.23Z"/>
      <path class="cls-2" d="m191.26,198.37c9.07-13.04,17.86-25.7,27.04-38.9,6.02,19.95-8.61,40.48-27.04,38.9Z"/>
    </g>
  </g>
</svg>