<?xml version="1.0" encoding="UTF-8" standalone="no"?>
<!-- Created with Inkscape (http://www.inkscape.org/) -->

<svg
   version="1.1"
   id="svg1"
   width="813.09436"
   height="551.70654"
   viewBox="0 0 813.09436 551.70654"
   xmlns="http://www.w3.org/2000/svg"
   xmlns:svg="http://www.w3.org/2000/svg">
  <defs
     id="defs1" />
  <g
     id="g1"
     transform="translate(-847.25061,-2335.6531)">
    <path
       id="path12"
       d="m 1480.32,2550.9467 c 0,25.1866 -7.1067,33.8933 -20.5734,40.2933 v -74.4 c 4.9334,1.7333 9.2134,4.72 12.64,8.8667 l 0.7334,0.8666 c 2.9733,3.4267 7.2,10.9734 7.2,24.3734 z m 175.36,-40.3067 -0.1467,-0.72 c -14.72,-73.4933 -55.48,-113.7333 -87.24,-134.5867 C 1531.6,2349.76 1485.9733,2335.68 1439.76,2335.68 l -520.59336,-0.027 c -21.208,0 -40.38666,9.0934 -54.00133,25.6267 -11.14666,13.5333 -17.54,30.84 -17.54133,47.48 v 5.8667 c -0.0373,5.8 -1.44267,231.9733 1.45333,355.3469 0.0147,0.5864 0.04,1.1864 0.0747,1.7333 2.87333,46.5198 26.30933,82.7334 65.992,101.9864 27.32666,13.2532 53.908,13.6667 56.88666,13.6667 h 0.0907 c 9.736,0 239.63603,-0.014 352.65733,-1.4401 7.056,0 15.8214,-0.014 27.088,-2.7333 l 0.6134,-0.1464 c 41.9466,-10.7203 73.2,-36.4938 90.36,-74.5203 5,-11.1063 8.7333,-22.9599 11.24,-35.8531 26.4533,-2.7604 51.6,-9.1865 75.0266,-19.1601 32.2,-13.72 59.52,-33.4667 81.2267,-58.6934 42.7732,-49.693 58.8666,-115.093 45.3466,-184.173"
       style="fill:#ffffff;fill-opacity:1;fill-rule:nonzero;stroke:none;stroke-width:0.133333" />
    <path
       id="path13"
       d="m 1610.6533,2519.1867 c -10.5467,-53.0134 -37.84,-86.2534 -68.04,-105.9067 -30.2,-21.2133 -66.5867,-31.7733 -102.8533,-31.7733 l -520.59336,-0.027 c -18.192,-0.013 -25.716,18.1867 -25.716,27.28 0,1.4533 -10e-4,6.0667 -10e-4,6.0667 0,0 -1.472,229.9733 1.44133,354.053 4.488,72.6538 77.14134,72.6538 77.14134,72.6538 0,0 237.49859,0.013 352.48529,-1.4402 6.064,0 10.5627,0 16.616,-1.453 65.0267,-16.6136 71.0933,-77.147 71.0933,-110.4936 130.2534,5.84 222.56,-86.4534 198.4267,-208.96 z M 1463.88,2638.6533 c -27.28,3.0267 -49.9734,1.4534 -49.9734,1.4534 L 1413.92,2469.2 h 34.8133 c 22.68,0 43.9067,9.1067 58.9467,27.2933 10.56,12.1334 18.2,28.7467 18.2,53 -0.013,55.92 -28.76,78.6 -62,89.16"
       style="fill:#ffffff;fill-opacity:1;fill-rule:nonzero;stroke:none;stroke-width:0.133333" />
    <path
       id="path14"
       d="m 914.03598,2768.0532 c -2.824,-120.8799 -1.48534,-343.7599 -1.42667,-353.2265 v -5.9467 c 0.0827,-0.5467 1.44,-8.2533 6.556,-8.2533 l 520.59469,0.04 c 33.2533,0 65.8666,10.04 91.84,28.2933 0.1866,0.1333 0.3733,0.2667 0.56,0.3867 31.3066,20.36 51.4,51.84 59.7066,93.5466 9.68,49.2 -1.24,95.2134 -30.7866,129.5334 -33.2934,38.68 -87.2267,59.32 -148,56.5866 -5.1867,-0.24 -10.3334,1.68 -14.0934,5.28 -3.76,3.6 -5.92,8.6534 -5.92,13.8534 0,52.0664 -18.5066,82.133 -56.4933,91.88 -3.776,0.9068 -6.4973,0.9068 -11.92,0.9068 l -0.3773,0.013 c -100.0307,1.2537 -293.2827,1.4136 -350.13069,1.4272 h -2.06667 c -0.14133,0 -14.36666,-0.2667 -28.57333,-7.1605 -18.07333,-8.7599 -27.988,-24.6266 -29.46933,-47.1599 z M 1629.48,2515.6133 v -0.027 c -0.013,-0.04 -0.013,-0.067 -0.027,-0.1067 l -0.027,-0.1333 c -12.9333,-64.8134 -48.4933,-99.8934 -76.08,-117.9334 -32.3066,-22.6133 -72.6533,-35.0666 -113.5866,-35.0666 l -520.59336,-0.027 c -29.28,0 -44.87466,26.9733 -44.876,46.44 v 5.9467 c -0.0147,2.2933 -1.44266,231.5866 1.44534,354.6268 0.007,0.2396 0.0173,0.4801 0.032,0.7333 2.888,46.7599 29.336,69.1063 51.01466,79.6265 22.39734,10.8667 44.32267,11 45.248,11 h 0.0907 c 9.736,0 239.74396,-0.014 352.49326,-1.4401 6.548,0 12.732,0 20.972,-1.9864 l 0.2934,-0.067 c 34.3066,-8.7598 58.7466,-28.8401 72.64,-59.6537 6.5733,-14.5599 10.5466,-30.9733 12.1066,-50.0664 31.4667,-0.8 61.0667,-7.0133 88.0267,-18.5067 28.4133,-12.1066 52.4533,-29.4533 71.4667,-51.5466 37.36,-43.4134 51.3333,-100.8667 39.36,-161.8134"
       style="fill:#100f0d;fill-opacity:1;fill-rule:nonzero;stroke:none;stroke-width:0.133333" />
    <path
       id="path15"
       d="m 1433.08,2621.32 v -132.96 h 15.6533 c 17.6533,0 33.3467,7.2267 44.2,20.36 l 0.2933,0.3467 c 9.08,10.4266 13.4934,23.6533 13.4934,40.4266 -0.013,38.2534 -14.0267,59.32 -46.8667,70.32 -8.56,0.8934 -17.5467,1.4 -26.7733,1.5067 z m -20.4934,37.9067 c 0.68,0.04 6.88,0.4533 16.6,0.4533 12.56,0 24.9467,-0.6667 36.8134,-1.9867 1.24,-0.1333 2.48,-0.4 3.68,-0.7733 50,-15.88 75.3466,-52.0133 75.3466,-107.4267 0.013,-25.9866 -7.6533,-48 -22.6933,-65.36 -18.2533,-21.9733 -44.3867,-34.0933 -73.6,-34.0933 H 1413.92 c -10.56,0 -19.16,8.6 -19.16,19.16 v 170.9067 c 0,10.0266 7.8266,18.4266 17.8266,19.12"
       style="fill:#100f0d;fill-opacity:1;fill-rule:nonzero;stroke:none;stroke-width:0.133333" />
    <path
       id="path16"
       d="m 1149.1226,2744.5333 c 6.0627,3.0267 9.0947,0 9.0947,0 0,0 83.2133,-75.68 121.0587,-119.48 33.24,-39.2933 34.816,-104.4266 -21.2174,-128.5733 -57.492,-24.2533 -104.4333,28.7467 -104.4333,28.7467 -40.872,-45.3734 -102.8573,-42.3467 -131.6053,-12.1467 -28.74936,30.2133 -18.196,81.76 3.0253,111.96 19.6493,27.2933 107.4587,105.8933 121.0453,118.0267 0,-1.5734 1.572,0 3.032,1.4666"
       style="fill:#f14255;fill-opacity:1;fill-rule:nonzero;stroke:none;stroke-width:0.133333" />
    <path
       id="path17"
       d="m 1151.9293,2746.7733 c 3.3693,0.68 6.288,-2.24 6.288,-2.24 0,0 83.2133,-75.68 121.0587,-119.48 33.24,-39.2933 34.816,-104.4266 -21.2174,-128.5733 -57.492,-24.2533 -104.4333,28.7467 -104.4333,28.7467 -40.872,-45.3734 -102.8573,-42.3467 -131.6053,-12.1467 -28.74936,30.2133 -18.196,81.76 3.0253,111.96 18.5267,25.72 111.388,109.2667 122.9533,119.7067 1.124,1.0133 2.4707,1.8 3.9307,2.0266"
       style="fill:#f14259;fill-opacity:1;fill-rule:nonzero;stroke:none;stroke-width:0.133333" />
  </g>
</svg>
