<?xml version="1.0" encoding="UTF-8"?>
<svg id="Layer_2" data-name="Layer 2" xmlns="http://www.w3.org/2000/svg" viewBox="0 0 511 511">
  <defs>
    <style>
      .cls-1 {
        fill: #fff;
      }

      .cls-2 {
        fill: #2e52a2;
      }

      .cls-3 {
        fill: #2c4f9c;
      }
    </style>
  </defs>
  <g id="Layer_1-2" data-name="Layer 1">
    <g>
      <rect class="cls-2" width="511" height="511"/>
      <path class="cls-3" d="m378.84,187.74c18.59,18.69,37.05,37.52,55.81,56.04,25.3,24.97,50.83,49.71,76.26,74.54,0,62.87-.04,125.73.1,188.6,0,3.42-.67,4.09-4.09,4.09-72.84-.13-145.69-.1-218.53-.1-1.58-2.08-2.95-4.38-4.78-6.21-61.34-61.22-122.72-122.39-184.08-183.59-.31-.31-.33-.92-.48-1.39,10.25,0,20.49,0,31.39,0v-80.22c9.68,12.92,18.28,24.39,27.28,36.4,9.11-11.99,17.93-23.6,27.8-36.59v80.2h31.11v-131.92c7.21,8.18,14.43,16.37,20.86,23.66,6.66-3.87,10.49-6.09,14.31-8.32-31.01,31.06-34.41,97.23-6.57,135.87,8.54-6.39,17.06-12.77,25.31-18.94-1.95-4.44-3.6-8.2-5.26-11.96l-1.51-3.53c-2.23-8.71-4.46-17.43-6.69-26.14.12-.66.24-1.32.36-1.98,12.31.01,24.62.03,36.92.04.26.37.52.74.79,1.11v42.11h35.55c0-32.83.02-65.23-.1-97.63,0-.85-1.52-1.7-2.34-2.55-10.29,0-20.57.01-30.86.02-.58,9.04-1.16,18.08-1.75,27.11-.43.35-.86.7-1.28,1.04-10.34,0-20.69,0-31.39,0,10.59-41.13,43.67-30.37,71.77-32.35-2.82-9.78-5.43-18.81-8.04-27.84,5.55,5.27,11.1,10.53,17.12,16.25,1.33-5.94,2.45-10.93,3.57-15.92v131.12h67.55c2.41-8.56,4.78-16.97,7.15-25.38.18-.71.36-1.42.57-2.25-.94-.32-1.54-.52-2.15-.73h-41.68v-102.67Z"/>
      <path class="cls-1" d="m216.62,187.57v131.92h-31.11v-80.2c-9.87,12.99-18.69,24.6-27.8,36.59-9-12.01-17.59-23.48-27.28-36.4v80.22c-10.9,0-21.15,0-31.39,0,0,0,.01-.29.01-.29,0,0-.27-.1-.27-.1-.03-43.91-.05-87.81-.08-131.72,0,0,.18-.28.19-.28.45-.21.89-.43,1.34-.64,9.02,0,18.03,0,27.05,0,.77.17,1.54.33,2.32.5.92,1.03,1.85,2.05,2.77,3.09.4.58.8,1.16,1.21,1.73l.13-.28s-.28-.13-.3-.12c.42.58.85,1.15,1.28,1.72,3.63,5.5,7.26,11,10.89,16.5.26.35.52.7.78,1.05,0,0-.04-.04-.04-.04.69,1.01,1.38,2.01,2.07,3.02,0,0-.04-.29-.05-.28.43.59.86,1.17,1.3,1.75.85,1.42,1.69,2.84,2.54,4.26,1.67,2.52,3.33,5.04,5.4,8.18,2.21-3.38,3.9-5.98,5.6-8.58,0,0,.09-.15.09-.15.26-.41.52-.81.78-1.22,0,0-.04.09-.04.09,1.46-2.03,2.91-4.05,4.37-6.08.47-.74.94-1.48,1.41-2.22.24-.06.34-.21.28-.46,0,0,.03-.08.03-.08.3-.43.59-.86.88-1.29,0,0-.06.11-.06.11.27-.35.53-.7.8-1.05,2.3-3.55,4.6-7.09,6.9-10.64.43-.53.86-1.06,1.28-1.59l-.28.08s.08.28.08.29c.37-.47.74-.94,1.1-1.41,0,0-.15-.13-.14-.13.41-.6.82-1.21,1.22-1.82l-.27.15s.15.27.16.27c.39-.53.77-1.05,1.15-1.58.94-1.08,1.89-2.15,2.83-3.23.43-.17.86-.34,1.28-.52,8.77.11,17.55.23,26.32.34,1.07.17,2.14.34,3.21.51l.05.05Z"/>
      <path class="cls-1" d="m265.28,307.88c1.65,3.76,3.31,7.52,5.26,11.96-8.25,6.17-16.78,12.55-25.31,18.94-27.84-38.64-24.44-104.82,6.57-135.87,0,0-.1-.24-.1-.24,0,0-.24.1-.23.12.56-.4,1.12-.81,1.68-1.23.89-.61,1.77-1.23,2.66-1.84.33-.26.66-.51.99-.77,0,0-.04.02-.04.02.4-.3.8-.59,1.2-.89,0,0,.05-.02.05-.02.94-.55,1.89-1.1,2.83-1.65h.29s.14-.25.14-.25c5.86-2.35,11.73-4.7,17.59-7.05,0,0,.03.03.03.03,4.87-.69,9.74-1.38,14.61-2.07,10.46-.14,20.91-.27,31.37-.41.58.19,1.17.39,1.75.58,0,0,.1.06.1.06,2.61,9.03,5.22,18.06,8.04,27.84-28.1,1.97-61.17-8.79-71.77,32.35h31.39c.43-.35.86-.7,1.28-1.04.58-9.04,1.16-18.08,1.75-27.11,10.29,0,20.57-.01,30.86-.02.81.85,2.33,1.7,2.34,2.55.12,32.4.1,64.79.1,97.63h-35.55c0-14.05,0-28.08,0-42.11-.26-.37-.52-.74-.79-1.11-12.31-.01-24.62-.03-36.92-.04-.12.66-.24,1.32-.36,1.98,2.23,8.71,4.46,17.43,6.69,26.14.5,1.18,1.01,2.36,1.51,3.53Z"/>
      <path class="cls-1" d="m422.1,293.38c-2.37,8.41-4.74,16.82-7.15,25.38h-67.55v-131.12s-.03-.11-.02-.11c.44-.29.89-.57,1.33-.85,9.35,0,18.7,0,28.05,0,.45.18.89.36,1.34.54.25.17.5.35.75.52v102.67c13.96,0,27.82,0,41.68,0,.53.99,1.05,1.98,1.58,2.97Z"/>
      <path class="cls-3" d="m98.7,187.6c.03,43.91.05,87.81.08,131.72-.67-1.58-1.91-3.15-1.92-4.73-.11-40.73-.11-81.47,0-122.2,0-1.6,1.2-3.19,1.85-4.78Z"/>
      <path class="cls-3" d="m293.49,187.08c-4.87.69-9.74,1.38-14.61,2.07,3.01-3.89,44.89-5.55,47.73-1.9-.58-.19-1.17-.39-1.75-.58-10.46.14-20.91.27-31.37.41Z"/>
      <path class="cls-3" d="m278.84,189.13c-5.86,2.35-11.73,4.7-17.59,7.05,3.79-7.52,10.52-7.7,17.59-7.05Z"/>
      <path class="cls-3" d="m216.57,187.52c-1.07-.17-2.14-.34-3.21-.51-8.77-.11-17.55-.23-26.32-.34-.43.17-.86.34-1.28.52,10.3-2.48,20.57-3.06,30.81.33Z"/>
      <path class="cls-3" d="m163.19,219.15c-1.7,2.6-3.39,5.2-5.6,8.58-2.07-3.13-3.73-5.65-5.4-8.18,1.62.65,3.23,1.31,4.83,1.95,2-.76,4.09-1.56,6.17-2.36Z"/>
      <path class="cls-3" d="m100.23,186.67c-.45.21-.89.43-1.34.64,10.22-2.96,20.46-2.7,30.71-.14-.77-.17-1.54-.33-2.32-.5-9.02,0-18.03,0-27.05,0Z"/>
      <path class="cls-3" d="m348.7,186.68c-.44.28-.88.57-1.33.85,10.2-3.44,20.45-2.8,30.71-.31-.45-.18-.89-.36-1.34-.54-9.35,0-18.7,0-28.05,0Z"/>
      <path class="cls-3" d="m168.38,211.79c-1.46,2.03-2.91,4.05-4.37,6.08,1.46-2.03,2.91-4.05,4.37-6.08Z"/>
      <path class="cls-3" d="m260.83,196.42c-.94.55-1.89,1.1-2.83,1.65.94-.55,1.89-1.1,2.83-1.65Z"/>
      <path class="cls-3" d="m148.4,213.84c-.69-1.01-1.38-2.01-2.07-3.02.69,1.01,1.38,2.01,2.07,3.02Z"/>
      <path class="cls-3" d="m171.73,206.8c-.27.35-.53.7-.8,1.05.27-.35.53-.7.8-1.05Z"/>
      <path class="cls-3" d="m256.79,198.96c-.33.26-.66.51-.99.77.33-.26.66-.51.99-.77Z"/>
      <path class="cls-3" d="m146.36,210.86c-.26-.35-.52-.7-.78-1.05.26.35.52.7.78,1.05Z"/>
      <path class="cls-3" d="m182.93,190.42c-.38.53-.76,1.05-1.15,1.58.38-.53.77-1.05,1.15-1.58Z"/>
      <path class="cls-3" d="m257.95,198.09c-.4.3-.8.59-1.2.89.4-.3.8-.59,1.2-.89Z"/>
      <path class="cls-3" d="m253.14,201.57c-.56.42-1.12.83-1.68,1.23.56-.42,1.12-.83,1.68-1.23Z"/>
      <path class="cls-3" d="m179.91,194.57c-.43.53-.86,1.06-1.28,1.59.43-.53.86-1.06,1.28-1.59Z"/>
      <path class="cls-3" d="m170.99,207.74c-.29.43-.59.86-.88,1.29.29-.43.59-.86.88-1.29Z"/>
      <path class="cls-3" d="m170.08,209.11c.05.24-.04.4-.28.46l-.03-.33.31-.12Z"/>
      <path class="cls-3" d="m180.81,193.52c-.37.47-.73.94-1.1,1.41.36-.47.73-.94,1.1-1.41Z"/>
      <path class="cls-3" d="m149.65,215.3c-.43-.58-.87-1.16-1.3-1.75.44.58.87,1.16,1.3,1.75Z"/>
      <path class="cls-3" d="m164.05,217.78c-.26.41-.52.81-.78,1.22.26-.4.52-.81.78-1.22Z"/>
      <path class="cls-3" d="m181.9,191.58c-.41.61-.81,1.21-1.22,1.82.4-.61.81-1.21,1.22-1.82Z"/>
      <path class="cls-3" d="m134.69,193.31c-.43-.57-.87-1.14-1.28-1.72.44.57.86,1.14,1.28,1.72Z"/>
      <path class="cls-3" d="m133.57,192c-.4-.57-.81-1.14-1.21-1.73.41.57.81,1.15,1.21,1.73Z"/>
      <path class="cls-2" d="m328.26,219.32c-10.29,0-20.57.01-30.86.02,10.29,0,20.57-.01,30.86-.02Z"/>
      <path class="cls-2" d="m422.1,293.38c-.53-.99-1.05-1.98-1.58-2.97.61.2,1.21.41,2.15.73-.21.83-.39,1.54-.57,2.25Z"/>
      <path class="cls-2" d="m265.28,307.88c-.5-1.18-1.01-2.36-1.51-3.53.5,1.18,1.01,2.36,1.51,3.53Z"/>
      <path class="cls-2" d="m295.65,246.45c-.43.35-.86.7-1.28,1.04.43-.35.86-.7,1.28-1.04Z"/>
      <path class="cls-2" d="m257.08,278.21c.12-.66.24-1.32.36-1.98-.12.66-.24,1.32-.36,1.98Z"/>
      <path class="cls-2" d="m294.37,276.27c.26.37.52.74.79,1.11-.26-.37-.52-.74-.79-1.11Z"/>
      <path class="cls-2" d="m100.23,186.67c9.02,0,18.03,0,27.05,0h-27.05Z"/>
      <path class="cls-2" d="m187.05,186.68c8.77.11,17.55.23,26.32.34-8.77-.11-17.55-.23-26.32-.34Z"/>
      <path class="cls-2" d="m293.49,187.08c10.46-.14,20.91-.27,31.37-.41-10.46.14-20.91.27-31.37.41Z"/>
      <path class="cls-2" d="m348.7,186.68c9.35,0,18.7,0,28.05,0-9.35,0-18.7,0-28.05,0Z"/>
    </g>
  </g>
</svg>